{
  "streams": [
    {
      "index": 0,
      "codec_name": "hevc",
      "codec_long_name": "H.265 / HEVC (High Efficiency Video Coding)",
      "profile": "Main",
      "codec_type": "video",
      "codec_tag_string": "hvc1",
      "codec_tag": "0x31637668",
      "width": 3840,
      "height": 3360,
      "coded_width": 3840,
      "coded_height": 3360,
      "closed_captions": 0,
      "film_grain": 0,
      "has_b_frames": 0,
      "sample_aspect_ratio": "1: 1",
      "display_aspect_ratio": "8: 7",
      "pix_fmt": "yuvj420p",
      "level": 180,
      "color_range": "pc",
      "color_space": "bt709",
      "color_transfer": "bt709",
      "color_primaries": "bt709",
      "chroma_location": "left",
      "refs": 1,
      "view_ids_available": "",
      "view_pos_available": "",
      "id": "0x1",
      "r_frame_rate": "60000/1001",
      "avg_frame_rate": "60000/1001",
      "time_base": "1/60000",
      "start_pts": 0,
      "start_time": "0.000000",
      "duration_ts": 2514512,
      "duration": "41.908533",
      "bit_rate": "60193513",
      "nb_frames": "2512",
      "extradata_size": 118,
      "disposition": {
        "default": 1,
        "dub": 0,
        "original": 0,
        "comment": 0,
        "lyrics": 0,
        "karaoke": 0,
        "forced": 0,
        "hearing_impaired": 0,
        "visual_impaired": 0,
        "clean_effects": 0,
        "attached_pic": 0,
        "timed_thumbnails": 0,
        "non_diegetic": 0,
        "captions": 0,
        "descriptions": 0,
        "metadata": 0,
        "dependent": 0,
        "still_image": 0,
        "multilayer": 0
      },
      "tags": {
        "creation_time": "2024-11-06T20: 38: 42.000000Z",
        "language": "eng",
        "handler_name": "GoPro H.265",
        "vendor_id": "",
        "encoder": "GoPro H.265 encoder",
        "timecode": "16: 37: 42: 49"
      }
    },
    {
      "index": 1,
      "codec_name": "aac",
      "codec_long_name": "AAC (Advanced Audio Coding)",
      "profile": "LC",
      "codec_type": "audio",
      "codec_tag_string": "mp4a",
      "codec_tag": "0x6134706d",
      "sample_fmt": "fltp",
      "sample_rate": "48000",
      "channels": 2,
      "channel_layout": "stereo",
      "bits_per_sample": 0,
      "initial_padding": 0,
      "id": "0x2",
      "r_frame_rate": "0/0",
      "avg_frame_rate": "0/0",
      "time_base": "1/48000",
      "start_pts": 0,
      "start_time": "0.000000",
      "duration_ts": 2011136,
      "duration": "41.898667",
      "bit_rate": "189433",
      "nb_frames": "1964",
      "extradata_size": 5,
      "disposition": {
        "default": 1,
        "dub": 0,
        "original": 0,
        "comment": 0,
        "lyrics": 0,
        "karaoke": 0,
        "forced": 0,
        "hearing_impaired": 0,
        "visual_impaired": 0,
        "clean_effects": 0,
        "attached_pic": 0,
        "timed_thumbnails": 0,
        "non_diegetic": 0,
        "captions": 0,
        "descriptions": 0,
        "metadata": 0,
        "dependent": 0,
        "still_image": 0,
        "multilayer": 0
      },
      "tags": {
        "creation_time": "2024-11-06T20: 38: 42.000000Z",
        "language": "eng",
        "handler_name": "GoPro AAC  ",
        "vendor_id": "",
        "timecode": "16: 37: 42: 49"
      }
    },
    {
      "index": 2,
      "codec_type": "data",
      "codec_tag_string": "tmcd",
      "codec_tag": "0x64636d74",
      "id": "0x3",
      "r_frame_rate": "0/0",
      "avg_frame_rate": "60000/1001",
      "time_base": "1/60000",
      "start_pts": 0,
      "start_time": "0.000000",
      "duration_ts": 2514512,
      "duration": "41.908533",
      "nb_frames": "1",
      "extradata_size": 18,
      "disposition": {
        "default": 1,
        "dub": 0,
        "original": 0,
        "comment": 0,
        "lyrics": 0,
        "karaoke": 0,
        "forced": 0,
        "hearing_impaired": 0,
        "visual_impaired": 0,
        "clean_effects": 0,
        "attached_pic": 0,
        "timed_thumbnails": 0,
        "non_diegetic": 0,
        "captions": 0,
        "descriptions": 0,
        "metadata": 0,
        "dependent": 0,
        "still_image": 0,
        "multilayer": 0
      },
      "tags": {
        "creation_time": "2024-11-06T20: 38: 42.000000Z",
        "language": "eng",
        "handler_name": "GoPro TCD  ",
        "timecode": "16: 37: 42: 49"
      }
    },
    {
      "index": 3,
      "codec_name": "bin_data",
      "codec_long_name": "binary data",
      "codec_type": "data",
      "codec_tag_string": "gpmd",
      "codec_tag": "0x646d7067",
      "id": "0x4",
      "r_frame_rate": "0/0",
      "avg_frame_rate": "0/0",
      "time_base": "1/1000",
      "start_pts": 0,
      "start_time": "0.000000",
      "duration_ts": 41909,
      "duration": "41.909000",
      "bit_rate": "56560",
      "nb_frames": "42",
      "disposition": {
        "default": 1,
        "dub": 0,
        "original": 0,
        "comment": 0,
        "lyrics": 0,
        "karaoke": 0,
        "forced": 0,
        "hearing_impaired": 0,
        "visual_impaired": 0,
        "clean_effects": 0,
        "attached_pic": 0,
        "timed_thumbnails": 0,
        "non_diegetic": 0,
        "captions": 0,
        "descriptions": 0,
        "metadata": 0,
        "dependent": 0,
        "still_image": 0,
        "multilayer": 0
      },
      "tags": {
        "creation_time": "2024-11-06T20: 38: 42.000000Z",
        "language": "eng",
        "handler_name": "GoPro MET  "
      }
    }
  ],
  "format": {
    "filename": "C:\\Users\\FabrizioColonna\\OneDrive - Quantexa LTD\\Desktop\\my_code\\skydive_videos\\Whole group circled up.MP4",
    "nb_streams": 4,
    "nb_programs": 0,
    "nb_stream_groups": 0,
    "format_name": "mov,mp4,m4a,3gp,3g2,mj2",
    "format_long_name": "QuickTime / MOV",
    "start_time": "0.000000",
    "duration": "41.908533",
    "size": "316755077",
    "bit_rate": "60465982",
    "probe_score": 100,
    "tags": {
      "major_brand": "mp41",
      "minor_version": "538120216",
      "compatible_brands": "mp41",
      "creation_time": "2024-11-06T20: 38: 42.000000Z",
      "firmware": "H22.03.02.30.00"
    }
  }
}
